REM DIRINDEX 1\2,1\3,1\4,1\5
REM DIRNAME cjc004,folder01,folder02,folder03,folder04
TITLE ""
FILE "1Q_t_1759-1768.mp3" MP3
  TRACK 01 AUDIO
    TITLE "3:cjc004_6184"
    INDEX 01 00:00:00
  TRACK 02 AUDIO
    TITLE "0:"
    INDEX 01 00:01:09
  TRACK 03 AUDIO
    TITLE "4:cjc004_6185"
    INDEX 01 00:01:38
  TRACK 04 AUDIO
    TITLE "0:"
    INDEX 01 00:02:45
  TRACK 05 AUDIO
    TITLE "5:cjc004_6186"
    INDEX 01 00:02:71
  TRACK 06 AUDIO
    TITLE "0:"
    INDEX 01 00:07:45
  TRACK 07 AUDIO
    TITLE "3:cjc004_6187"
    INDEX 01 00:08:26
  TRACK 08 AUDIO
    TITLE "0:"
    INDEX 01 00:09:42
  TRACK 09 AUDIO
    TITLE "4:cjc004_6188"
    INDEX 01 00:09:73
  TRACK 10 AUDIO
    TITLE "0:"
    INDEX 01 00:11:44
  TRACK 11 AUDIO
    TITLE "5:cjc004_6189"
    INDEX 01 00:11:68
  TRACK 12 AUDIO
    TITLE "0:"
    INDEX 01 00:17:18
  TRACK 13 AUDIO
    TITLE "3:cjc004_6190"
    INDEX 01 00:17:70
  TRACK 14 AUDIO
    TITLE "0:"
    INDEX 01 00:19:05
  TRACK 15 AUDIO
    TITLE "4:cjc004_6191"
    INDEX 01 00:19:36
  TRACK 16 AUDIO
    TITLE "0:"
    INDEX 01 00:20:47
  TRACK 17 AUDIO
    TITLE "5:cjc004_6192"
    INDEX 01 00:20:71
  TRACK 18 AUDIO
    TITLE "0:"
    INDEX 01 00:27:18
  TRACK 19 AUDIO
    TITLE "3:cjc004_6193"
    INDEX 01 00:27:71
  TRACK 20 AUDIO
    TITLE "0:"
    INDEX 01 00:29:15
  TRACK 21 AUDIO
    TITLE "4:cjc004_6194"
    INDEX 01 00:29:42
  TRACK 22 AUDIO
    TITLE "0:"
    INDEX 01 00:31:31
  TRACK 23 AUDIO
    TITLE "5:cjc004_6195"
    INDEX 01 00:31:57
  TRACK 24 AUDIO
    TITLE "0:"
    INDEX 01 00:36:72
  TRACK 25 AUDIO
    TITLE "3:cjc004_6196"
    INDEX 01 00:37:56
  TRACK 26 AUDIO
    TITLE "0:"
    INDEX 01 00:38:71
  TRACK 27 AUDIO
    TITLE "4:cjc004_6197"
    INDEX 01 00:39:25
  TRACK 28 AUDIO
    TITLE "0:"
    INDEX 01 00:40:58
  TRACK 29 AUDIO
    TITLE "5:cjc004_6198"
    INDEX 01 00:41:10
  TRACK 30 AUDIO
    TITLE "0:"
    INDEX 01 00:46:54
  TRACK 31 AUDIO
    TITLE "3:cjc004_6199"
    INDEX 01 00:47:40
  TRACK 32 AUDIO
    TITLE "0:"
    INDEX 01 00:48:48
  TRACK 33 AUDIO
    TITLE "4:cjc004_6200"
    INDEX 01 00:49:00
  TRACK 34 AUDIO
    TITLE "0:"
    INDEX 01 00:50:11
  TRACK 35 AUDIO
    TITLE "5:cjc004_6201"
    INDEX 01 00:50:35
  TRACK 36 AUDIO
    TITLE "0:"
    INDEX 01 00:55:34
  TRACK 37 AUDIO
    TITLE "3:cjc004_6202"
    INDEX 01 00:56:16
  TRACK 38 AUDIO
    TITLE "0:"
    INDEX 01 00:57:29
  TRACK 39 AUDIO
    TITLE "4:cjc004_6203"
    INDEX 01 00:57:60
  TRACK 40 AUDIO
    TITLE "0:"
    INDEX 01 00:59:00
  TRACK 41 AUDIO
    TITLE "5:cjc004_6204"
    INDEX 01 00:59:26
  TRACK 42 AUDIO
    TITLE "0:"
    INDEX 01 01:04:48
  TRACK 43 AUDIO
    TITLE "3:cjc004_6205"
    INDEX 01 01:05:26
  TRACK 44 AUDIO
    TITLE "0:"
    INDEX 01 01:06:43
  TRACK 45 AUDIO
    TITLE "4:cjc004_6206"
    INDEX 01 01:06:71
  TRACK 46 AUDIO
    TITLE "0:"
    INDEX 01 01:08:66
  TRACK 47 AUDIO
    TITLE "5:cjc004_6207"
    INDEX 01 01:09:16
  TRACK 48 AUDIO
    TITLE "0:"
    INDEX 01 01:13:71
  TRACK 49 AUDIO
    TITLE "3:cjc004_6208"
    INDEX 01 01:14:45
  TRACK 50 AUDIO
    TITLE "0:"
    INDEX 01 01:15:62
  TRACK 51 AUDIO
    TITLE "4:cjc004_6209"
    INDEX 01 01:16:16
  TRACK 52 AUDIO
    TITLE "0:"
    INDEX 01 01:17:24
  TRACK 53 AUDIO
    TITLE "5:cjc004_6210"
    INDEX 01 01:17:47
  TRACK 54 AUDIO
    TITLE "0:"
    INDEX 01 01:22:37
  TRACK 55 AUDIO
    TITLE "3:cjc004_6211"
    INDEX 01 01:23:18
  TRACK 56 AUDIO
    TITLE "0:"
    INDEX 01 01:24:36
  TRACK 57 AUDIO
    TITLE "4:cjc004_6212"
    INDEX 01 01:24:61
  TRACK 58 AUDIO
    TITLE "0:"
    INDEX 01 01:26:05
  TRACK 59 AUDIO
    TITLE "5:cjc004_6213"
    INDEX 01 01:26:32
  TRACK 60 AUDIO
    TITLE "0:"
    INDEX 01 01:30:73
